<?xml version="1.0" encoding="utf-8"?>
<!-- Generator: Adobe Illustrator 24.1.0, SVG Export Plug-In . SVG Version: 6.00 Build 0)  -->
<svg version="1.1" id="Layer_1" xmlns="http://www.w3.org/2000/svg" xmlns:xlink="http://www.w3.org/1999/xlink" x="0px" y="0px"
	 viewBox="0 0 348.67 54.85" style="enable-background:new 0 0 348.67 54.85;" xml:space="preserve">
<style type="text/css">
	.st0{fill:#222222;}
</style>
<g>
	<g>
		<g>
			<path class="st0" d="M10.91,26.9h10.18v9.49c-0.55,0.6-1.27,1.18-2.14,1.74c-0.88,0.56-1.88,1.02-3.02,1.38
				c-1.14,0.36-2.39,0.53-3.75,0.53c-1.75,0-3.36-0.32-4.83-0.95c-1.47-0.63-2.76-1.5-3.87-2.61s-1.96-2.39-2.57-3.85
				C0.3,31.19,0,29.63,0,27.98s0.3-3.22,0.92-4.68c0.61-1.46,1.47-2.74,2.57-3.85s2.39-1.97,3.87-2.61
				c1.47-0.63,3.08-0.95,4.83-0.95c1.68,0,3.05,0.23,4.12,0.69c1.07,0.46,2.01,1.06,2.81,1.79v3.42c-0.51-0.37-1.08-0.77-1.71-1.21
				s-1.37-0.82-2.21-1.16c-0.84-0.33-1.85-0.5-3.02-0.5c-1.73,0-3.27,0.39-4.62,1.17c-1.36,0.78-2.43,1.86-3.21,3.23
				c-0.78,1.37-1.17,2.92-1.17,4.64c0,1.73,0.39,3.27,1.17,4.63c0.78,1.36,1.85,2.43,3.21,3.23c1.36,0.79,2.9,1.19,4.62,1.19
				c1.17,0,2.12-0.12,2.83-0.36c0.71-0.24,1.28-0.52,1.69-0.83s0.75-0.57,1-0.78l0.03-5.38h-6.83V26.9z"/>
		</g>
		<g>
			<path class="st0" d="M29.61,22.28v3.45c0.67-1.15,1.47-2.07,2.42-2.76c0.94-0.69,1.91-1.04,2.9-1.04c0.67,0,1.27,0.12,1.79,0.35
				v3.28c-0.74-0.44-1.47-0.66-2.21-0.66c-1.17,0-2.12,0.41-2.85,1.24c-0.73,0.83-1.41,1.82-2.05,2.97v10.42h-2.83V22.28H29.61z"/>
		</g>
		<g>
			<path class="st0" d="M48.83,21.93c1.77,0,3.24,0.37,4.42,1.1c1.17,0.74,2.05,1.74,2.64,3c0.59,1.27,0.88,2.69,0.88,4.28v1.69
				H43.52c0.14,0.97,0.47,1.85,1,2.66c0.53,0.81,1.22,1.44,2.07,1.92c0.85,0.47,1.83,0.71,2.93,0.71c1.24,0,2.4-0.32,3.49-0.95
				c1.08-0.63,1.99-1.33,2.73-2.09l-0.03,3.07c-0.32,0.39-0.8,0.8-1.43,1.23c-0.63,0.43-1.36,0.78-2.17,1.07
				c-0.82,0.29-1.67,0.43-2.57,0.43c-1.75,0-3.3-0.41-4.66-1.24c-1.36-0.83-2.42-1.93-3.19-3.3c-0.77-1.37-1.16-2.87-1.16-4.5
				c0-1.63,0.36-3.14,1.07-4.52c0.71-1.38,1.7-2.48,2.95-3.31C45.79,22.35,47.22,21.93,48.83,21.93z M48.83,24.7
				c-1.43,0-2.6,0.48-3.52,1.43c-0.92,0.96-1.5,2.11-1.73,3.47h10.39c-0.12-1.13-0.43-2.05-0.95-2.76c-0.52-0.71-1.15-1.25-1.88-1.6
				C50.41,24.87,49.64,24.7,48.83,24.7z"/>
		</g>
		<g>
			<path class="st0" d="M69.92,21.93c1.77,0,3.24,0.37,4.42,1.1c1.17,0.74,2.05,1.74,2.64,3c0.59,1.27,0.88,2.69,0.88,4.28v1.69
				H64.61c0.14,0.97,0.47,1.85,1,2.66c0.53,0.81,1.22,1.44,2.07,1.92c0.85,0.47,1.83,0.71,2.93,0.71c1.24,0,2.4-0.32,3.49-0.95
				c1.08-0.63,1.99-1.33,2.73-2.09l-0.03,3.07c-0.32,0.39-0.8,0.8-1.43,1.23c-0.63,0.43-1.36,0.78-2.17,1.07
				c-0.82,0.29-1.67,0.43-2.57,0.43c-1.75,0-3.3-0.41-4.66-1.24c-1.36-0.83-2.42-1.93-3.19-3.3c-0.77-1.37-1.16-2.87-1.16-4.5
				c0-1.63,0.36-3.14,1.07-4.52c0.71-1.38,1.7-2.48,2.95-3.31C66.88,22.35,68.31,21.93,69.92,21.93z M69.92,24.7
				c-1.43,0-2.6,0.48-3.52,1.43c-0.92,0.96-1.5,2.11-1.73,3.47h10.39c-0.12-1.13-0.43-2.05-0.95-2.76c-0.52-0.71-1.15-1.25-1.88-1.6
				C71.5,24.87,70.73,24.7,69.92,24.7z"/>
		</g>
		<g>
			<path class="st0" d="M86.73,22.28v2.73c0.37-0.46,0.84-0.93,1.42-1.4c0.57-0.47,1.23-0.87,1.95-1.19
				c0.72-0.32,1.48-0.48,2.26-0.48c1.17,0,2.24,0.26,3.21,0.78s1.74,1.3,2.31,2.35c0.57,1.05,0.86,2.36,0.86,3.95v10.53h-2.83
				l-0.03-10.25c0-1.5-0.33-2.63-0.98-3.42s-1.66-1.17-3.02-1.17c-0.92,0-1.83,0.34-2.74,1.02c-0.91,0.68-1.71,1.47-2.4,2.36v11.46
				H83.9V22.28H86.73z"/>
		</g>
		<g>
			<path class="st0" d="M120.69,22.28l-8.11,17.26h-1.76l-7.77-17.26h3.38l5.21,12.7l5.66-12.7H120.69z"/>
		</g>
		<g>
			<path class="st0" d="M130.04,22.28v17.26h-2.83v-14.6h-2.73v-2.66H130.04z M128.28,14c0.67,0,1.23,0.24,1.67,0.71
				c0.45,0.47,0.67,1.02,0.67,1.64c0,0.6-0.22,1.14-0.67,1.62c-0.45,0.48-1.01,0.73-1.67,0.73s-1.23-0.24-1.67-0.73
				c-0.45-0.48-0.67-1.02-0.67-1.62c0-0.62,0.22-1.17,0.67-1.64C127.06,14.23,127.61,14,128.28,14z"/>
		</g>
		<g>
			<path class="st0" d="M140.36,14.69v24.85h-2.83V14.69H140.36z"/>
		</g>
		<g>
			<path class="st0" d="M150.44,14.69v24.85h-2.83V14.69H150.44z"/>
		</g>
		<g>
			<path class="st0" d="M164.79,21.93c1.77,0,3.24,0.37,4.42,1.1c1.17,0.74,2.05,1.74,2.64,3c0.59,1.27,0.88,2.69,0.88,4.28v1.69
				h-13.25c0.14,0.97,0.47,1.85,1,2.66c0.53,0.81,1.22,1.44,2.07,1.92c0.85,0.47,1.83,0.71,2.93,0.71c1.24,0,2.4-0.32,3.49-0.95
				c1.08-0.63,1.99-1.33,2.73-2.09l-0.03,3.07c-0.32,0.39-0.8,0.8-1.43,1.23c-0.63,0.43-1.36,0.78-2.17,1.07
				c-0.82,0.29-1.67,0.43-2.57,0.43c-1.75,0-3.3-0.41-4.66-1.24c-1.36-0.83-2.42-1.93-3.19-3.3c-0.77-1.37-1.16-2.87-1.16-4.5
				c0-1.63,0.36-3.14,1.07-4.52c0.71-1.38,1.7-2.48,2.95-3.31C161.75,22.35,163.18,21.93,164.79,21.93z M164.79,24.7
				c-1.43,0-2.6,0.48-3.52,1.43c-0.92,0.96-1.5,2.11-1.73,3.47h10.39c-0.12-1.13-0.43-2.05-0.95-2.76c-0.52-0.71-1.15-1.25-1.88-1.6
				C166.37,24.87,165.6,24.7,164.79,24.7z"/>
		</g>
		<g>
			<path class="st0" d="M207.65,16.41v2.93h-7.97v20.09h-3.11V19.35h-7.97v-2.93H207.65z"/>
		</g>
		<g>
			<path class="st0" d="M220.77,21.93c1.75,0,3.3,0.41,4.66,1.24c1.36,0.83,2.42,1.93,3.19,3.31c0.77,1.38,1.16,2.89,1.16,4.52
				c0,1.63-0.39,3.14-1.16,4.5c-0.77,1.37-1.83,2.47-3.19,3.3c-1.36,0.83-2.91,1.24-4.66,1.24c-1.75,0-3.3-0.41-4.66-1.24
				c-1.36-0.83-2.42-1.93-3.19-3.3c-0.77-1.37-1.16-2.87-1.16-4.5c0-1.63,0.39-3.14,1.16-4.52c0.77-1.38,1.83-2.48,3.19-3.31
				C217.47,22.35,219.02,21.93,220.77,21.93z M220.77,24.7c-1.22,0-2.29,0.29-3.21,0.88c-0.92,0.59-1.63,1.36-2.12,2.31
				c-0.5,0.96-0.74,2-0.74,3.12c0,1.1,0.25,2.13,0.74,3.09c0.49,0.96,1.2,1.73,2.12,2.31c0.92,0.59,1.99,0.88,3.21,0.88
				c1.24,0,2.32-0.29,3.23-0.88c0.91-0.59,1.61-1.36,2.11-2.31c0.49-0.95,0.74-1.98,0.74-3.09c0-1.13-0.25-2.17-0.74-3.12
				c-0.5-0.95-1.2-1.73-2.11-2.31C223.09,24.99,222.01,24.7,220.77,24.7z"/>
		</g>
		<g>
			<path class="st0" d="M242.93,21.93c0.99,0,2,0.24,3.02,0.71c1.02,0.47,1.9,1.12,2.64,1.95v-2.31h2.83v16.91
				c0,2.05-0.41,3.75-1.24,5.11c-0.83,1.36-1.93,2.37-3.31,3.04c-1.38,0.67-2.89,1-4.52,1c-1.06,0-1.96-0.12-2.71-0.36
				c-0.75-0.24-1.39-0.54-1.92-0.9c-0.53-0.36-1.01-0.7-1.45-1.02v-3.04c0.35,0.25,0.8,0.58,1.36,0.98c0.56,0.4,1.24,0.76,2.04,1.09
				c0.79,0.32,1.69,0.48,2.67,0.48c1.13,0,2.16-0.21,3.11-0.62c0.94-0.41,1.7-1.02,2.28-1.83c0.57-0.81,0.86-1.77,0.86-2.9V36.6
				c-0.6,0.92-1.41,1.73-2.43,2.42c-1.02,0.69-2.19,1.04-3.5,1.04c-1.47,0-2.82-0.37-4.04-1.12c-1.22-0.75-2.19-1.79-2.92-3.12
				s-1.09-2.88-1.09-4.63c0-1.91,0.36-3.56,1.09-4.94c0.72-1.38,1.72-2.44,2.99-3.19C239.95,22.31,241.36,21.93,242.93,21.93z
				 M243.44,24.73c-1.24,0-2.3,0.31-3.18,0.91c-0.87,0.61-1.55,1.4-2.02,2.38c-0.47,0.98-0.71,2.03-0.71,3.16
				c0,1.1,0.23,2.12,0.69,3.04c0.46,0.92,1.11,1.66,1.95,2.21s1.81,0.83,2.92,0.83c1.06,0,2-0.28,2.83-0.83
				c0.83-0.55,1.48-1.31,1.97-2.28s0.71-2.06,0.69-3.28l-0.03-3.31c-0.71-0.9-1.48-1.59-2.3-2.09
				C245.44,24.98,244.5,24.73,243.44,24.73z"/>
		</g>
		<g>
			<path class="st0" d="M265.77,21.93c1.77,0,3.24,0.37,4.42,1.1c1.17,0.74,2.05,1.74,2.64,3c0.59,1.27,0.88,2.69,0.88,4.28v1.69
				h-13.25c0.14,0.97,0.47,1.85,1,2.66c0.53,0.81,1.22,1.44,2.07,1.92c0.85,0.47,1.83,0.71,2.93,0.71c1.24,0,2.4-0.32,3.49-0.95
				c1.08-0.63,1.99-1.33,2.73-2.09l-0.03,3.07c-0.32,0.39-0.8,0.8-1.43,1.23c-0.63,0.43-1.36,0.78-2.17,1.07
				c-0.82,0.29-1.67,0.43-2.57,0.43c-1.75,0-3.3-0.41-4.66-1.24c-1.36-0.83-2.42-1.93-3.19-3.3c-0.77-1.37-1.16-2.87-1.16-4.5
				c0-1.63,0.36-3.14,1.07-4.52c0.71-1.38,1.7-2.48,2.95-3.31C262.73,22.35,264.16,21.93,265.77,21.93z M265.77,24.7
				c-1.43,0-2.6,0.48-3.52,1.43c-0.92,0.96-1.5,2.11-1.73,3.47h10.39c-0.12-1.13-0.43-2.05-0.95-2.76c-0.52-0.71-1.15-1.25-1.88-1.6
				C267.35,24.87,266.58,24.7,265.77,24.7z"/>
		</g>
		<g>
			<path class="st0" d="M284.51,17.31v4.97h5.04v2.66h-5.04v10.11c0,0.71,0.18,1.28,0.55,1.69c0.37,0.41,0.93,0.62,1.69,0.62
				c0.69,0,1.27-0.09,1.73-0.26c0.46-0.17,0.86-0.36,1.21-0.57v2.31c-0.46,0.37-0.95,0.66-1.47,0.88c-0.52,0.22-1.21,0.33-2.09,0.33
				c-1.47,0-2.58-0.44-3.33-1.33c-0.75-0.89-1.12-2.06-1.12-3.54V24.94h-3.31v-0.83c1.13-0.51,2.07-1.34,2.83-2.5
				c0.76-1.16,1.43-2.59,2-4.3H284.51z"/>
		</g>
		<g>
			<path class="st0" d="M304.53,21.93c1.17,0,2.24,0.26,3.21,0.78s1.74,1.3,2.31,2.35c0.57,1.05,0.86,2.36,0.86,3.95v10.53h-2.83
				l-0.03-10.25c0-1.5-0.33-2.63-0.98-3.42s-1.66-1.17-3.02-1.17c-0.92,0-1.83,0.34-2.74,1.02c-0.91,0.68-1.71,1.47-2.4,2.36v11.46
				h-2.83V14.69h2.83v10.32c0.37-0.46,0.84-0.93,1.42-1.4c0.57-0.47,1.23-0.87,1.95-1.19C302.99,22.1,303.75,21.93,304.53,21.93z"/>
		</g>
		<g>
			<path class="st0" d="M324.75,21.93c1.77,0,3.24,0.37,4.42,1.1c1.17,0.74,2.05,1.74,2.64,3c0.59,1.27,0.88,2.69,0.88,4.28v1.69
				h-13.25c0.14,0.97,0.47,1.85,1,2.66c0.53,0.81,1.22,1.44,2.07,1.92c0.85,0.47,1.83,0.71,2.93,0.71c1.24,0,2.4-0.32,3.49-0.95
				c1.08-0.63,1.99-1.33,2.73-2.09l-0.03,3.07c-0.32,0.39-0.8,0.8-1.43,1.23c-0.63,0.43-1.36,0.78-2.17,1.07
				c-0.82,0.29-1.67,0.43-2.57,0.43c-1.75,0-3.3-0.41-4.66-1.24c-1.36-0.83-2.42-1.93-3.19-3.3c-0.77-1.37-1.16-2.87-1.16-4.5
				c0-1.63,0.36-3.14,1.07-4.52c0.71-1.38,1.7-2.48,2.95-3.31C321.71,22.35,323.14,21.93,324.75,21.93z M324.75,24.7
				c-1.43,0-2.6,0.48-3.52,1.43c-0.92,0.96-1.5,2.11-1.73,3.47h10.39c-0.12-1.13-0.43-2.05-0.95-2.76c-0.52-0.71-1.15-1.25-1.88-1.6
				C326.33,24.87,325.56,24.7,324.75,24.7z"/>
		</g>
		<g>
			<path class="st0" d="M341.56,22.28v3.45c0.67-1.15,1.47-2.07,2.42-2.76c0.94-0.69,1.91-1.04,2.9-1.04c0.67,0,1.27,0.12,1.79,0.35
				v3.28c-0.74-0.44-1.47-0.66-2.21-0.66c-1.17,0-2.12,0.41-2.85,1.24c-0.73,0.83-1.41,1.82-2.05,2.97v10.42h-2.83V22.28H341.56z"/>
		</g>
	</g>
	<g>
		<polygon class="st0" points="182.19,14.23 181.19,14.23 181.19,0 348.67,0 348.67,1 182.19,1 		"/>
	</g>
	<g>
		<polygon class="st0" points="182.19,54.85 0,54.85 0,53.85 181.19,53.85 181.19,40.62 182.19,40.62 		"/>
	</g>
</g>
</svg>
